<svg width="140" height="110" viewBox="0 0 140 110" xmlns="http://www.w3.org/2000/svg"><path fill="#fff" d="M113.31 107.84c-1.99-2.72-5.38-4.13-7.89-6.25-.29-.34-.59-.53-.9-.71-1.44-3.46-4.62-5.48-8.49-6.77-2.63-2.61-5.13-5.21-7.61-7.81-1.17-1.21-2.34-2.27-3.36-3.46-1-1.36-.97-3.58-1.63-5.06l.22-.78c.02-.15.03-.32.19-.31-.17.14-.32.14-.66.25.51-2.17 1.46-3.84 1.15-5.92.42-2.97.42-8.37.05-11.43-.95-7.38 2.9-18.47 3.79-19.49 1.05-1.17-1.8-4.92-5.64-3.04-6.32 2.94-5.14 9.54-7.98 14.68-.58 1.05-1.29 1.95-2.02 2.99-.51.27-.87.71-1.22 1.15-.36.44-.58 1.05-1.1 1.65-1.92.15-3.48-.31-5.21-.61 0 0-8.95-5.79-12.05-6.69-1.85-.65-4.97-.83-6.6-.34-1.39-.44-2.8 1.02-3.72 2.38-.93 1.51-1.54 3.04-2 4.74l-.15-.02c-.51.27-1 .54-1.34.83-1.87 1.26-3.14 3.06-3.19 5.43-.14 1.58.37 3.04.87 4.67-.34.29-.7.58-.87.88-1.29 1.95-1.31 4.01-.51 5.82-.83.41-1.38 1.15-1.78 2.07-1.71 4.92 3.73 8.27 7.57 10.02 2.14.98 4.18 1.48 6.25 1.49-.03.32-.05.63.08.8 5.92 7.03 19.78 8.88 19.93 8.9l.32.03c6.21 7.37 7.19 12.06 7.19 12.06h39.31c-.02.01-.02-.64-1-2.15z"/><path fill="#818285" d="M64.01 58.61c-.75-.8-3.75-1.92-5.18-1.87-1.05.03-.73 1.19-.73 1.19-.59-.44-2.05-1.14-2.55-2-.51-.88-2.58-2.43-3.36-2.65-1.56-.41-2.72-1.22-2.38-.56.34.66 1.77.61 3.12 1.6 1.71 1.24 3.5 3.53 4.72 4.23 2.12 1.29-1.82 2.53-.07 4.43l-1.21 2.75c-.63 1.7-.92 3.24-1.39 4.96-.73 2.78-1.46 5.74-2.82 8.47-1.17 2.43-3.23 4.01-4.69 6.09-1.44 1.94-.03 3.96 1.83 4.6l.1.65c.37 1.14 1.12 1.85 1.88 2.07.44.51 1.02 1.04 1.94 1.6 2.14 1.14 3.51-.02 4.75-3.4.63-1.7 3.33-7.01 4.48-7.54.51-.27 1.15-.53 1.82-.8.15.02.32-.14.32-.14l.49-.12c2.12-.61 1.63-2.78.83-4.75-.8-1.82-2.22-8.54.81-12.22 0 0-.15-3.67-1.21-4.4.06 0-.91-1.67-1.5-2.19z" opacity=".4"/><path fill="#151841" d="M87.06 44.75c1.44-1.94 3.36-5.72 1.82-8.06-2.11-3.19-5.77-1.46-8.28-.08-2.67 1.36-4.06 4.4-4.92 7.03l-.32.98-.1.24c-.61 3.28-1.85 6.5-3.84 9.18-.92 1.34-2.33 2.82-4.21 2.48-1.56-.46-3.04-1.7-4.41-2.44-2.72-1.66-5.64-3.04-8.71-4.26-2.16-.83-4.6-1.99-6.91-1.09-4.13-.15-6.03 3.65-6.65 7.45l-.22.03C36.1 58 34.67 62.73 36.4 66.6c-1.19 1.02-2 2.24-2.16 3.99-.12 1.32.61 2.55 1.04 3.84-.08.05-.19.1-.29.2-5.55 5.06 1.51 9.97 5.94 12.26 2.14 1.1 4.31 1.94 6.5 1.9.66 2.99 4.79 5.16 7.28 6.28 4.62 2.26 10.61 4.63 15.92 3.12.17.05 6.79-2.24 7.89-5.79.41-.92-1.14-1.53-1.56-.46-1 2.8-6.25 4.5-6.3 4.52-4.75 1.49-9.35-.51-13.67-2.31-2.33-.95-7.15-2.85-7.83-5.62.66-.17 1.34-.39 2.02-.76 1.71-.93 4.86-2.43 4.41-4.55.73-.32 1.43-.71 2-1.24 1.51-1.39 2.19-3.75.92-5.31h.02c2.78-.87 4.58-4.99 3.21-7.49-.54-1-2.05-.19-1.49.66.66 1.49.07 2.87-.83 4.06-.88 1.04-1.87 1.26-3 1.48l-2.19.25c.87-1.39 1.07-3.29.05-4.89-.56-.85-1.92.15-1.38 1.15.71 1.02.29 2.24-.27 3.14-.76 1.36-2.16.92-3.21.19-1.21-.75-2.39-1.8-3.58-2.7-2.68-1.82-5.89-3.21-7.54-6.16a.825.825 0 0 0-.19-.25c-1.58-2.85-.56-6.6 2.33-8.17.1.17.25.29.44.36 2.61 1.02 4.82 3.12 6.71 5.19 1.48 1.39 2.89 3.43 4.74 4.23.53.22 1.02.34 1.51.39.12.22.32.41.65.44 2.05.19 4.4.7 6.38-.07 2.29-.75 3.43-2.72 4.24-4.7.83-2.16.37-4.24-1.39-5.84-1.63-1.41-4.09-2.43-6.08-1.49-.17.07-.36.27-.44.49-.22-.19-.42-.39-.66-.58-1.9-1.92-3.97-3.68-6.43-4.84-1.07-.58-1.68.97-.76 1.51 2.44 1.17 4.35 3.07 6.26 4.84.73.7 1.48 1.39 2.22 1.94.14.17.46.2.61.22.98-.24 1.36.92 1.78 1.43.56.85 1.92-.15 1.38-1.15-.37-.59-.98-1.44-1.66-1.78a.88.88 0 0 0-.36-.61l-.19-.22c1.48-.05 2.9 1.15 3.84 2.12 1.46 1.56-.05 4.28-1.14 5.6-1.12 1.63-3.12 1.7-5.03 1.53.66-.81.98-2 .75-3.48-.22-1.14-1.85-.8-1.63.34.53 3.06-2.19 3.14-4.13 1.7-1.36-.92-2.5-2.44-3.67-3.65-1.85-1.88-3.84-3.77-6.25-4.89.39-3.19 1.68-6.93 5.65-6.43.39.03.66-.17.8-.44 1.32-.15 2.73.48 3.96.85 1.54.61 3.24 1.24 4.77 2 2.31 1 4.41 2.29 6.52 3.75 1.05.73 2.26 1.46 3.53 1.58 3.65.53 6.16-3.17 7.74-7.03.12.32.25.63.44.93.56.85 2.05.19 1.49-.66-.63-1.07-.83-2.41-.73-3.8.29-1.02.51-1.95.66-2.7.03-.15.02-.29-.02-.41.71-2.19 1.92-4.26 3.07-5.52 1.41-1.61 4.24-2.95 6.4-2.14 2.41.9.76 4.3-.32 6.16-.2.05-.36.19-.42.42-1.02 2.61-1.43 5.26-2.14 8.06-.71 2.63-.58 4.7-.17 7.44 1.04 6.28 1.07 13.26-1.83 19.03-.41.92 1.14 1.53 1.54.61 2.55-5.33 2.73-11.19 2.27-16.93-.2-3.19-1.21-6.3-.27-9.54.72-2.42 1.13-5.02 1.99-7.45zM48.78 87.04c.03-.14.17-.25.17-.25s.58-1.05.29-1.41c-.29-.36-.76-.39-1.27-.12-.34.29-.53.59-.73 1.05l-.7.73-.05.24c-1.92-.2-3.85-1.29-5.36-2.14-3.16-1.53-8.86-5.26-5.26-8.98l.12.07c3.36 3.9 8.98 7.35 14.16 7.81 1.15.1 2.43.03 3.65-.22-.38 1.19-3.61 2.7-5.02 3.22zM37.54 68.11c1.17 1.68 2.67 2.87 4.41 3.94l7.06 4.91c1.02.63 2.02.73 2.9.51.22.05.87-.02 1.36-.14.65-.1 1.29-.2 1.92-.15.56-.03 1.12-.1 1.68-.19-.03.22 0 .46.19.66 1.56 1.71-.8 3.4-2.48 4.13a.837.837 0 0 0-.75.27l-.19.05c-.85.19-1.73.22-2.61.2.44-.44.81-.93 1.14-1.46.2-.46.24-.93-.22-1.14-.31-.19-.93-.24-1.14.22-.2.46-.54.75-.73 1.05s-.53.59-.87.71c-.2.08-.34.22-.41.39-.58-.1-1.14-.24-1.66-.41-3.53-1.22-7.5-3.77-9.98-6.65-.1-1.02-.46-1.95-.81-2.87-.75-1.73-.07-3.02 1.02-4.13.07.07.12.1.17.1zm30.25-3.61c.58-1.05-.78-1.97-1.34-1.07-.95 1.82-2.22 3.62-2.43 5.81-.15 1.73.02 3.5.17 5.25.49 3.38 1.78 6.98 4.97 8.69.9.56 1.99-.78.92-1.34-2.89-1.53-3.9-4.62-4.26-7.67-.2-1.29-.25-2.56-.14-3.97.06-2.24 1.16-3.89 2.11-5.7zm-.93 34.17c3.09 1.07 4.11 4.01 5.14 6.79.78 1.97-.04.01 2.15 4.15.41.83 1.9.17 1.49-.66-2.31-4.48-1.88-3.51-2.82-5.65-1.04-2.78-2.58-5.14-5.52-6.2-.91-.21-1.37 1.33-.44 1.57zM82.99 74.7c.61 3.85.14 7.62 3.06 10.58 2.05 2.09 4.6 3.89 6.82 5.84 6.96 6.01 14.09 12.54 20.88 18.69.54.57 1.97-.46.92-1.34-6.49-5.96-13.16-12.15-19.83-17.8l-6.08-5.3c-2.39-1.8-3.34-3.62-3.73-6.52l-.39-4.63c-.26-.83-1.72-.47-1.65.48z"/></svg>