<svg width="140" height="110" viewBox="0 0 140 110" xmlns="http://www.w3.org/2000/svg"><path fill="#4751a2" d="M110.09 78.96l-2.85 5.13-17.63.26-2.94-5.42z"/><path fill="#a9a09f" d="M92.94 48.3l14.83 25.34h-6.61l-8.8-14.9-12.53 20.21 12.51 19.87-6.43.51-8.31-15.25-14.37 25.34-3.17-5.46z"/><path fill="#4751a2" d="M130.51 104.13l-2.65 5.29H63.23l3.45-6.63L77.6 84.08l2.99 5.37-8.28 14.68 23 .15 11.93-20.19 2.84 5.24-8.72 14.8z"/><path fill="#a9a09f" d="M100.83 84.3l5.82.08-11.12 19.53-3.19-4.88z"/><path fill="#fff" d="M92.75 49.31H98l32.5 54.83h-29.15l2.94-5.04s16.41-.6 17.64-.15c.56.21-5.12-8.68-11.85-20l-23.42-.03 3.1-5.16h17.25C99.4 61 92.75 49.31 92.75 49.31z"/><path fill="#a9a09f" d="M110.09 78.96l11.86 19.99-6.3-.19-8.29-14.86z"/><path fill="#fff" d="M74.98 98.95l17.36.08 2.87 5.1h-22.9zm5.61-19.98l6.25-.04 8.37 15.13-2.87 4.76z"/><path fill="#4751a2" d="M80.59 78.97l11.77-20.23 2.85 5.44-8.37 14.75z"/><path fill="#151841" d="M104.35 99.8l18.68.04-11.41-19.59-1.1-1.98h-22.7l2.21-3.83h18.2L94 50.03l-1.06-1.74-1.13.69 14.1 24.13h-4.39l-9.19-15.7-12.51 21.54 11.33 19.53H86.7l-8.32-14.36-.77-1.37-15.37 26.35 1.14.66L77.59 85.4l7.57 13.06h-10.2v1.33h16.95l2.81 4.83 1.14-.66-2.76-4.76 8.64-14.79-1.14-.66-5.28 9.04-7.51-13.19h21.93l10.98 18.9-16.36-.03v1.33zM90.79 73.11l4.57-7.9 4.63 7.9h-9.2zm3.77 21l-2.21 3.79-10.93-18.73-.09-.19L91.87 60.9l.49-.85 2.24 3.83-8.7 15.03 8.66 15.2zm4.21-46.13H92l-32.61 55.89 3.13 6.23h65.74l3.42-5.81-32.91-56.31zm28.72 60.78H63.33l-2.44-4.87 31.87-54.6H98l31.74 54.32h-27.23l7.64-13.08 5.21 8.93 1.14-.66-8.95-15.32-17.92-.07v1.33l16.45.05-8.27 14.18-2.85 4.64h-21.8l8.01-13.84-1.15-.66-9.16 15.83h24.83l3.25-5.28 8.27-14.18 2.19 3.74-9.17 15.72h29.52l-2.26 3.82z"/><path fill="none" stroke="#5854a4" stroke-width=".237" stroke-miterlimit="10" d="M95.21 104.13l-17.7-30.35"/><path fill="#a63923" d="M62.31 65.72l-7.93-6.31 7.21-5.89 7.21 6.88-6.49 5.32z"/><path fill="#151841" d="M62.31 67.01l-9.36-7.6 8.64-7.03 8.64 8.17-7.92 6.46zm-6.34-7.61l6.34 5.17 5.03-4.17-5.9-5.59-5.47 4.59z"/><path fill="#a63923" d="M30.63 65.72l-8.2-6.03 7.34-6.16 7.34 6.88-6.48 5.31z"/><path fill="#151841" d="M30.63 67.01l-9.79-7.18 9.07-7.46 8.64 8.17-7.92 6.47zm-6.77-7.33l6.62 4.87 5.03-4.17-5.9-5.58-5.75 4.88z"/><path fill="#f1662a" d="M79.31 53.37l-17.42 12.2-8.64-6.75c-2.01-1.59-2.45-4.87-1.16-7.18l3.32-5.89-8.5-13.49-9.07 13.34 3.6 6.46c1.29 2.16.72 4.87-1.29 6.46l-9.51 7.18-8.2-6.03-8.64-6.31-.43 36.02.29 2.44c0 8.76 66.53 8.32 66.53-.43V89.1l-.88-35.73z"/><path fill="#151841" d="M45.74 99.15c-8.5 0-16.42-.57-22.32-1.59-7.21-1.29-10.66-3.16-10.8-5.59l-.29.43v-2.88l.43-38.03 17.71 13.06 9.07-6.88c1.59-1.29 2.01-3.45 1.01-5.17l-3.89-6.88L46.89 30.7l9.51 15.22-3.6 6.31c-1.01 1.86-.57 4.74 1.01 5.89l8.07 6.31 18.29-12.77.95 36.56.34 4.2c0 .72-.72.57-1.44 1.14-4.03 4.02-20.88 5.59-34.28 5.59zm-31.39-9.76l.29 2.44c0 .43.43 2.29 9.22 3.87 5.77 1 13.53 1.59 22.03 1.59 16.56 0 30.1-2.01 32.98-5.02.43-.43.43-.72.43-.87v-2.29l-.85-33.87-16.56 11.62-9.22-7.18c-2.3-1.86-3.02-5.59-1.44-8.32l3.02-5.31-7.34-11.92-7.93 11.48 3.32 5.89c1.44 2.58.87 5.89-1.59 7.6l-10.08 7.75-15.82-11.78-.46 34.32z"/><g transform="matrix(.125 0 0 .125 -30 .348)"><ellipse cx="615.22" cy="740.22" fill="#a63923" rx="268.45" ry="48.39"/><path fill="#151841" d="M615.22 796.68c-71.43 0-139.41-4.61-191.25-14.98-85.26-14.98-85.26-35.72-85.26-42.64 0-6.91 0-26.51 85.26-42.64 50.69-9.22 118.68-14.98 191.25-14.98 72.59 0 139.41 4.61 191.25 14.98 85.26 14.98 85.26 35.72 85.26 42.64 0 6.91 0 26.51-85.26 42.64-51.85 9.22-119.81 14.98-191.25 14.98zm0-97.94c-71.43 0-138.25 4.61-187.8 13.83-58.77 10.38-72.59 23.04-72.59 27.65 0 3.46 12.68 16.13 72.59 27.65 50.69 9.22 116.37 13.83 187.8 13.83s138.25-4.61 187.8-13.83c58.77-10.38 72.59-23.04 72.59-27.65 0-3.46-12.68-16.13-72.59-27.65-50.7-9.22-117.52-13.83-187.8-13.83z"/></g><path fill="#151841" d="M80.89 86.53l-1.64.19c0-.43-1.82-2.2-9.03-3.64-6.19-1.14-14.54-1.86-23.34-1.86-8.92 0-17.29.57-23.47 1.72-7.34 1.29-9.07 2.88-9.07 3.45h-1.88c0-.87 0-3.3 10.66-5.31 6.34-1.14 14.84-1.86 23.91-1.86 8.92 0 17.29.72 23.61 1.86 6.94 1.43 10.25 3.14 10.25 5.45zM46.9 94.28c-11.65 0-22.29-1.12-28.6-2.89-.48-.13-1.38-.56-1.81-.7l1.03-1.59c5.77 2.01 17 3.16 29.24 3.16s23.34-1.29 29.09-3.3l.72 1.72c-5.91 2.3-17.28 3.6-29.67 3.6z"/><circle cx="22.85" cy="73.73" r="3.74" fill="#fff"/><path fill="#151841" d="M22.85 78.21c-2.6 0-4.76-2.16-4.76-4.74s2.16-4.74 4.76-4.74 4.76 2.16 4.76 4.74c-.15 2.58-2.16 4.74-4.76 4.74zm0-7.48c-1.59 0-2.73 1.29-2.73 2.73 0 1.59 1.29 2.73 2.73 2.73s2.73-1.29 2.73-2.73c.01-1.58-1.29-2.73-2.73-2.73z"/><circle cx="46.76" cy="71.28" r="3.74" fill="#fff"/><path fill="#151841" d="M46.76 75.62c-2.6 0-4.76-2.16-4.76-4.74s2.16-4.74 4.76-4.74c2.6 0 4.76 2.16 4.76 4.74-.16 2.73-2.17 4.74-4.76 4.74zm0-7.32c-1.59 0-2.73 1.29-2.73 2.73s1.29 2.73 2.73 2.73 2.73-1.29 2.73-2.73c.01-1.44-1.3-2.73-2.73-2.73z"/><circle cx="71.38" cy="74.15" r="3.74" fill="#fff"/><path fill="#151841" d="M71.38 78.48c-2.6 0-4.76-2.16-4.76-4.74S68.78 69 71.38 69c2.6 0 4.76 2.16 4.76 4.74-.15 2.73-2.16 4.74-4.76 4.74zm0-7.45c-1.59 0-2.73 1.29-2.73 2.73 0 1.59 1.29 2.73 2.73 2.73 1.59 0 2.73-1.29 2.73-2.73a2.707 2.707 0 0 0-2.73-2.73z"/><path fill="#fff" d="M43.16 45.48l3.32-4.74 3.46 4.74-3.46 4.3-3.32-4.3z"/><path fill="#151841" d="M46.48 50.79l-4.18-5.31 4.18-5.74 4.18 5.74-4.18 5.31zm-2.5-5.33l2.48 3.13 2.48-3.13-2.48-3.39-2.48 3.39z"/></svg>